<?xml version="1.0" encoding="UTF-8" standalone="no"?>
<!DOCTYPE svg PUBLIC "-//W3C//DTD SVG 1.1//EN"
 "http://www.w3.org/Graphics/SVG/1.1/DTD/svg11.dtd">
<!-- Generated by graphviz version 9.0.0 (20230911.1827)
 -->
<!-- Title: dependency&#45;cruiser output Pages: 1 -->
<svg width="150pt" height="275pt"
 viewBox="0.00 0.00 149.75 275.00" xmlns="http://www.w3.org/2000/svg" xmlns:xlink="http://www.w3.org/1999/xlink">
<g id="graph0" class="graph" transform="scale(1 1) rotate(0) translate(4 271)">
<title>dependency&#45;cruiser output</title>
<polygon fill="white" stroke="none" points="-4,4 -4,-271 145.75,-271 145.75,4 -4,4"/>
<g id="clust1" class="cluster">
<title>cluster_src</title>
<path fill="#ffffff" stroke="black" stroke-width="2" d="M20,-8C20,-8 121.75,-8 121.75,-8 127.75,-8 133.75,-14 133.75,-20 133.75,-20 133.75,-247 133.75,-247 133.75,-253 127.75,-259 121.75,-259 121.75,-259 20,-259 20,-259 14,-259 8,-253 8,-247 8,-247 8,-20 8,-20 8,-14 14,-8 20,-8"/>
<text text-anchor="middle" x="70.88" y="-246.45" font-family="Helvetica,sans-Serif" font-weight="bold" font-size="9.00">src</text>
</g>
<g id="clust2" class="cluster">
<title>cluster_src/js</title>
<path fill="#ffffff" stroke="black" stroke-width="2" d="M29.12,-44C29.12,-44 112.62,-44 112.62,-44 118.62,-44 124.62,-50 124.62,-56 124.62,-56 124.62,-220 124.62,-220 124.62,-226 118.62,-232 112.62,-232 112.62,-232 29.12,-232 29.12,-232 23.12,-232 17.12,-226 17.12,-220 17.12,-220 17.12,-56 17.12,-56 17.12,-50 23.12,-44 29.12,-44"/>
<text text-anchor="middle" x="70.88" y="-219.45" font-family="Helvetica,sans-Serif" font-weight="bold" font-size="9.00">js</text>
</g>
<g id="clust3" class="cluster">
<title>cluster_src/js/engine</title>
<path fill="#ffffff" stroke="black" stroke-width="2" d="M47.75,-150C47.75,-150 94,-150 94,-150 100,-150 106,-156 106,-162 106,-162 106,-193 106,-193 106,-199 100,-205 94,-205 94,-205 47.75,-205 47.75,-205 41.75,-205 35.75,-199 35.75,-193 35.75,-193 35.75,-162 35.75,-162 35.75,-156 41.75,-150 47.75,-150"/>
<text text-anchor="middle" x="70.88" y="-192.45" font-family="Helvetica,sans-Serif" font-weight="bold" font-size="9.00">engine</text>
</g>
<g id="clust4" class="cluster">
<title>cluster_src/js/game</title>
<path fill="#ffffff" stroke="black" stroke-width="2" d="M37.12,-52C37.12,-52 104.62,-52 104.62,-52 110.62,-52 116.62,-58 116.62,-64 116.62,-64 116.62,-130 116.62,-130 116.62,-136 110.62,-142 104.62,-142 104.62,-142 37.12,-142 37.12,-142 31.12,-142 25.12,-136 25.12,-130 25.12,-130 25.12,-64 25.12,-64 25.12,-58 31.12,-52 37.12,-52"/>
<text text-anchor="middle" x="70.88" y="-129.45" font-family="Helvetica,sans-Serif" font-weight="bold" font-size="9.00">game</text>
</g>
<g id="clust5" class="cluster">
<title>cluster_src/js/game/dataObjects</title>
<path fill="#ffffff" stroke="black" stroke-width="2" d="M45.12,-60C45.12,-60 96.62,-60 96.62,-60 102.62,-60 108.62,-66 108.62,-72 108.62,-72 108.62,-103 108.62,-103 108.62,-109 102.62,-115 96.62,-115 96.62,-115 45.12,-115 45.12,-115 39.12,-115 33.12,-109 33.12,-103 33.12,-103 33.12,-72 33.12,-72 33.12,-66 39.12,-60 45.12,-60"/>
<text text-anchor="middle" x="70.88" y="-102.45" font-family="Helvetica,sans-Serif" font-weight="bold" font-size="9.00">dataObjects</text>
</g>
<!-- src/.dependency&#45;cruiser.js -->
<g id="node1" class="node">
<title>src/.dependency&#45;cruiser.js</title>
<g id="a_node1"><a xlink:href="src/.dependency-cruiser.js" xlink:title=".dependency&#45;cruiser.js">
<path fill="#ccffcc" stroke="black" d="M119.33,-35.62C119.33,-35.62 22.42,-35.62 22.42,-35.62 19.21,-35.62 16,-32.42 16,-29.21 16,-29.21 16,-22.79 16,-22.79 16,-19.58 19.21,-16.38 22.42,-16.38 22.42,-16.38 119.33,-16.38 119.33,-16.38 122.54,-16.38 125.75,-19.58 125.75,-22.79 125.75,-22.79 125.75,-29.21 125.75,-29.21 125.75,-32.42 122.54,-35.62 119.33,-35.62"/>
<text text-anchor="start" x="24" y="-23.07" font-family="Helvetica,sans-Serif" font-size="9.00">.dependency&#45;cruiser.js</text>
</a>
</g>
</g>
<!-- src/js/engine/engine.js -->
<g id="node2" class="node">
<title>src/js/engine/engine.js</title>
<g id="a_node2"><a xlink:href="src/js/engine/engine.js" xlink:title="engine.js">
<path fill="#ccffcc" stroke="black" d="M91.58,-177.62C91.58,-177.62 50.17,-177.62 50.17,-177.62 46.96,-177.62 43.75,-174.42 43.75,-171.21 43.75,-171.21 43.75,-164.79 43.75,-164.79 43.75,-161.58 46.96,-158.38 50.17,-158.38 50.17,-158.38 91.58,-158.38 91.58,-158.38 94.79,-158.38 98,-161.58 98,-164.79 98,-164.79 98,-171.21 98,-171.21 98,-174.42 94.79,-177.62 91.58,-177.62"/>
<text text-anchor="start" x="51.75" y="-165.07" font-family="Helvetica,sans-Serif" font-size="9.00">engine.js</text>
</a>
</g>
</g>
<!-- src/js/game/dataObjects/prebuild.js -->
<g id="node3" class="node">
<title>src/js/game/dataObjects/prebuild.js</title>
<g id="a_node3"><a xlink:href="src/js/game/dataObjects/prebuild.js" xlink:title="prebuild.js">
<path fill="#ccffcc" stroke="black" d="M94.21,-87.62C94.21,-87.62 47.54,-87.62 47.54,-87.62 44.33,-87.62 41.12,-84.42 41.12,-81.21 41.12,-81.21 41.12,-74.79 41.12,-74.79 41.12,-71.58 44.33,-68.38 47.54,-68.38 47.54,-68.38 94.21,-68.38 94.21,-68.38 97.42,-68.38 100.62,-71.58 100.62,-74.79 100.62,-74.79 100.62,-81.21 100.62,-81.21 100.62,-84.42 97.42,-87.62 94.21,-87.62"/>
<text text-anchor="start" x="49.12" y="-75.08" font-family="Helvetica,sans-Serif" font-size="9.00">prebuild.js</text>
</a>
</g>
</g>
</g>
</svg>
